<svg xmlns="http://www.w3.org/2000/svg" width="14.04" height="29" viewBox="0 0 14.04 29">
  <g id="surface1" transform="translate(14.039 29) rotate(180)">
    <path id="Path_1" data-name="Path 1" d="M1.145,25.527c0,1.488,2.867,2.977,2.867,2.977A7.768,7.768,0,0,0,7.02,29a7.768,7.768,0,0,0,3.008-.5s2.863-1.488,2.863-2.977V22.2a4.65,4.65,0,0,0-.215-1.348s.215-16.449.215-17.793a3.4,3.4,0,0,0-1.859-2.7C10.313-.066,7.734,0,7.02,0S3.727-.066,3.008.359a3.408,3.408,0,0,0-1.863,2.7c0,1.344.215,17.793.215,17.793A4.93,4.93,0,0,0,1.145,22.2Zm0,0" fill="#1a2a2a"/>
    <path id="Path_2" data-name="Path 2" d="M1.145,25.527c0,1.488,2.867,2.977,2.867,2.977A7.768,7.768,0,0,0,7.02,29a7.768,7.768,0,0,0,3.008-.5s2.863-1.488,2.863-2.977V22.2a4.65,4.65,0,0,0-.215-1.348V20.8l-.035.012a7.747,7.747,0,0,0-.5,2.48c-.219,1.984,0,2.836-.645,3.473s-1,1.277-1.934,1.277H4.477c-.93,0-1.289-.637-1.934-1.277s-.43-1.488-.645-3.473a7.631,7.631,0,0,0-.5-2.48L1.359,20.8v.047A4.93,4.93,0,0,0,1.145,22.2Zm0,0"/>
    <path id="Path_3" data-name="Path 3" d="M11.367.578A9.529,9.529,0,0,0,12.426,2.52h.4A3.473,3.473,0,0,0,11.367.578" fill="#d43830"/>
    <path id="Path_4" data-name="Path 4" d="M9.953,28.148v.387c.051-.02.074-.031.074-.031a8.3,8.3,0,0,0,2.5-2c.043-.68.039-1.418-.277-.484a4.034,4.034,0,0,1-2.293,2.125" fill="#efc47f"/>
    <path id="Path_5" data-name="Path 5" d="M10.488,22.383c0,.6-.02,1.727-.066,2.754a6.316,6.316,0,0,1-.5,2.34c.945-1.4.965-4.25.945-5.207-.121.039-.246.078-.375.113"/>
    <path id="Path_6" data-name="Path 6" d="M12.313,18.285c-.035,1.094-.066,2.723-.066,2.848,0,.7-1.176,1.164-2.508,1.422a.486.486,0,0,1-.062.016c-.145.027-.289.051-.434.074-.434.066-.875.117-1.281.145-.1.008-.2.016-.3.02s-.2.012-.3.012c-.059,0-.113,0-.172,0h0c-.059,0-.113,0-.168,0a11.623,11.623,0,0,1-4.527-.844c-.023-.012-.047-.027-.07-.039a2.009,2.009,0,0,1-.191-.125,1.177,1.177,0,0,1-.109-.086.79.79,0,0,1-.328-.6c0-.125-.031-1.754-.066-2.848L2.434,16v.031l.023.023a.069.069,0,0,1,.02.016.082.082,0,0,0,.023.016.1.1,0,0,0,.023.02.415.415,0,0,0,.043.035.17.17,0,0,1,.027.016.221.221,0,0,0,.051.031.908.908,0,0,0,.109.063.082.082,0,0,0,.023.016.23.23,0,0,1,.031.016c.02.008.039.02.063.031,0,0,.008,0,.012,0l.09.043s.008,0,.008,0a10.5,10.5,0,0,0,4.039.578A17.3,17.3,0,0,0,9.4,16.785c1.77-.258,2.2-.758,2.2-.758v-.035Zm0,0" fill="#494849"/>
    <path id="Path_7" data-name="Path 7" d="M2.672.578A9.529,9.529,0,0,1,1.613,2.52H1.207A3.5,3.5,0,0,1,2.672.578" fill="#d43830"/>
    <path id="Path_8" data-name="Path 8" d="M7.02,16.938a10.5,10.5,0,0,0,4.039-.578,4.9,4.9,0,0,1-.066-.793c0-.852-.215-11.605-.215-11.605H3.258s-.215,10.754-.215,11.605a4.9,4.9,0,0,1-.062.793,10.5,10.5,0,0,0,4.039.578" fill="#1a2a2a"/>
    <path id="Path_9" data-name="Path 9" d="M4.082,28.148v.387c-.047-.02-.07-.031-.07-.031a8.346,8.346,0,0,1-2.5-2c-.039-.68-.035-1.418.277-.484a4.045,4.045,0,0,0,2.293,2.125" fill="#efc47f"/>
    <path id="Path_10" data-name="Path 10" d="M3.547,22.383c0,.6.02,1.727.07,2.754a6.274,6.274,0,0,0,.5,2.34c-.945-1.4-.965-4.25-.941-5.207.121.039.242.078.371.113"/>
    <path id="Path_11" data-name="Path 11" d="M1.828,21.094l.609-5.066s-.074-12.2-.074-12.621a1.4,1.4,0,0,1,1-1.488,22.293,22.293,0,0,1,3.652-.34,22.293,22.293,0,0,1,3.652.34,1.4,1.4,0,0,1,1,1.488c0,.426-.074,12.621-.074,12.621l.609,5.066s.215-4.82.215-10.066a60.68,60.68,0,0,0-.574-8.789,2.376,2.376,0,0,0-1-.922A12.782,12.782,0,0,0,7.02.949a12.766,12.766,0,0,0-3.832.367,2.4,2.4,0,0,0-1,.922,61.087,61.087,0,0,0-.57,8.789c0,5.246.215,10.066.215,10.066" fill="#0d1516"/>
    <path id="Path_12" data-name="Path 12" d="M12.422,12.258l-.793-.664-.008,1.078.789.871c0-.422.008-.852.012-1.285"/>
    <path id="Path_13" data-name="Path 13" d="M12.227,5.68l-.57,1.074,0,.824.629-1.117c-.02-.273-.039-.531-.055-.781"/>
    <path id="Path_14" data-name="Path 14" d="M1.617,12.258l.793-.664,0,1.078-.785.871c-.008-.422-.012-.852-.012-1.285"/>
    <path id="Path_15" data-name="Path 15" d="M1.813,5.68l.57,1.074,0,.824L1.758,6.461c.02-.273.035-.531.055-.781"/>
    <path id="Path_16" data-name="Path 16" d="M9.918,28.547V28.18A8.125,8.125,0,0,1,7,28.645a8.168,8.168,0,0,1-2.918-.465v.34A7.987,7.987,0,0,0,7.035,29a8.194,8.194,0,0,0,2.883-.453" fill="#1a2a2a"/>
    <path id="Path_17" data-name="Path 17" d="M12.605,19.531c1.5-.059,1.434-1.98,1.434-1.98l-1.434.406Zm0,0" fill="#1a2a2a"/>
    <path id="Path_18" data-name="Path 18" d="M12.105,18.543h.5v.637h-.5Zm0,0" fill="#182627"/>
    <path id="Path_19" data-name="Path 19" d="M1.434,19.531C-.066,19.473,0,17.551,0,17.551l1.434.406Zm0,0" fill="#1a2a2a"/>
    <path id="Path_20" data-name="Path 20" d="M1.434,18.543h.5v.637h-.5Zm0,0" fill="#182627"/>
    <path id="Path_21" data-name="Path 21" d="M9.4,16.785a17.3,17.3,0,0,1-2.379.152,10.5,10.5,0,0,1-4.039-.578,4.9,4.9,0,0,0,.063-.793c0-.852.215-11.605.215-11.605H6.516A50.615,50.615,0,0,1,9.4,16.785Zm0,0" fill="#182627"/>
    <path id="Path_22" data-name="Path 22" d="M9.738,22.555v0l-.062.012c-.145.027-.289.051-.434.074-.426.066-.852.113-1.281.145-.1.008-.2.016-.3.02l-.3.012c-.059,0-.113,0-.172,0h0l-.168,0a11.623,11.623,0,0,1-4.527-.844c-.023-.012-.047-.027-.07-.039a2.009,2.009,0,0,1-.191-.125,1.177,1.177,0,0,1-.109-.086.79.79,0,0,1-.328-.6c0-.125-.031-1.754-.066-2.848L2.434,16v.031l.023.023a.069.069,0,0,1,.02.016.082.082,0,0,0,.023.016.1.1,0,0,0,.023.02c.016.012.027.023.043.035a.17.17,0,0,1,.027.016.221.221,0,0,0,.051.031.908.908,0,0,0,.109.063c.008,0,.016.012.023.016a.23.23,0,0,1,.031.016c.02.008.039.02.063.031,0,0,.008,0,.012,0l.09.043s.008,0,.008,0a10.5,10.5,0,0,0,4.039.578A17.3,17.3,0,0,0,9.4,16.785C9.59,18.645,9.7,20.574,9.738,22.555Zm0,0" fill="#424143"/>
  </g>
</svg>
